<?xml version="1.0" encoding="UTF-8"?>
<svg version="1.1" xmlns="http://www.w3.org/2000/svg" width="512" height="512">
<path d="M0 0 C168.96 0 337.92 0 512 0 C512 168.96 512 337.92 512 512 C343.04 512 174.08 512 0 512 C0 343.04 0 174.08 0 0 Z " fill="#FBFAFB" transform="translate(0,0)"/>
<path d="M0 0 C0.73732864 -0.00569504 1.47465729 -0.01139008 2.23432922 -0.01725769 C4.6556674 -0.02831432 7.07426613 0.00361451 9.49536133 0.03735352 C11.18353458 0.04093249 12.87171388 0.04228765 14.55989075 0.04151917 C18.08978932 0.04620159 21.61876981 0.07097829 25.1484375 0.11132812 C29.67482903 0.16241561 34.20021679 0.17376726 38.72686291 0.17149258 C42.20902605 0.17230768 45.69096938 0.18874905 49.17305946 0.2104969 C50.84242402 0.22004603 52.51181346 0.22595659 54.18120384 0.22817802 C56.51055892 0.23467462 58.83884339 0.26091194 61.16796875 0.29296875 C61.85841278 0.29160919 62.54885681 0.29024963 63.26022339 0.28884888 C66.09197784 0.34591381 67.96759419 0.43102284 70.31782532 2.08802795 C72.04932893 4.7379858 71.74250425 6.61402336 71.38989258 9.72875977 C70.68127923 11.66040258 69.969028 13.59089647 69.2277832 15.51025391 C67.84663432 19.16715947 66.66454584 22.88818601 65.45239258 26.60375977 C63.63558553 32.11594679 61.72691303 37.53022486 59.50317383 42.89282227 C57.93678446 46.88299307 56.54453282 50.92926959 55.13989258 54.97875977 C50.13977391 69.38224864 44.93009694 83.70799679 39.53588867 97.96850586 C37.77057594 102.65645839 36.10035834 107.37344753 34.45239258 112.10375977 C31.79905002 119.70404191 28.94048748 127.21268202 25.96801758 134.69360352 C25.04139913 137.03012917 24.17998553 139.34960022 23.37426758 141.73266602 C20.39907876 150.37423716 14.45803197 157.37709999 6.38989258 161.72875977 C0.6031756 163.85055599 -5.57795792 163.01875739 -11.24291992 160.93969727 C-16.11529442 158.44722846 -19.76214199 154.55540682 -23.61010742 150.72875977 C-24.79997319 149.56445358 -25.99009222 148.40040619 -27.18041992 147.23657227 C-36.90639315 137.65487502 -36.90639315 137.65487502 -40.21557617 133.61547852 C-42.55027438 130.80089128 -44.9926712 128.28056706 -47.61010742 125.72875977 C-48.78569838 124.56712342 -49.96008562 123.40426817 -51.13354492 122.24047852 C-51.7585791 121.62060059 -52.38361328 121.00072266 -53.02758789 120.36206055 C-58.19410554 115.22647241 -63.30631612 110.11940485 -68.00854492 104.54907227 C-70.66804843 101.52631949 -73.57727781 98.75444928 -76.44213867 95.92797852 C-78.3205255 94.02251584 -80.07012685 92.08203656 -81.79760742 90.04125977 C-85.76699856 85.40255677 -90.1351382 81.17775869 -94.47143555 76.88696289 C-98.23650696 73.14620841 -101.86118322 69.34555347 -105.27807617 65.27954102 C-105.93743164 64.5119043 -105.93743164 64.5119043 -106.61010742 63.72875977 C-107.08706055 63.16930664 -107.56401367 62.60985352 -108.05541992 62.03344727 C-110.63195489 59.87122948 -113.39662494 60.54686453 -116.61010742 60.72875977 C-120.0173211 67.15172001 -122.81631963 73.65899971 -125.37182617 80.46313477 C-127.88856791 87.10034642 -130.70786297 93.61473762 -133.49291992 100.14282227 C-137.30239108 109.09691095 -140.94869604 118.07171312 -144.28588867 127.21313477 C-145.21661421 129.68408753 -146.19011953 132.03570641 -147.27807617 134.43188477 C-148.85984633 137.75424903 -148.85984633 137.75424903 -148.61010742 141.72875977 C-141.41665223 143.6053133 -136.19483146 141.36168088 -129.88623047 137.73876953 C-124.96321245 134.58548537 -122.76995783 131.19159483 -120.42260742 125.91625977 C-119.78328451 124.55558268 -119.14396159 123.1949056 -118.50463867 121.83422852 C-117.52289911 119.72076847 -116.55608649 117.60508096 -115.62329102 115.46948242 C-115.29280762 114.74680176 -114.96232422 114.02412109 -114.62182617 113.27954102 C-114.33138428 112.62252197 -114.04094238 111.96550293 -113.74169922 111.28857422 C-112.61010742 109.72875977 -112.61010742 109.72875977 -110.67773438 108.8527832 C-108.61010742 108.72875977 -108.61010742 108.72875977 -105.51635742 111.19360352 C-104.36782276 112.33814096 -103.23285367 113.49641418 -102.11010742 114.66625977 C-101.54163086 115.2237793 -100.9731543 115.78129883 -100.38745117 116.35571289 C-96.60955893 120.19934571 -93.06406776 124.43752208 -91.61010742 129.72875977 C-92.3405762 132.86749278 -93.76434619 135.1068833 -95.61010742 137.72875977 C-96.07803711 138.4390332 -96.5459668 139.14930664 -97.02807617 139.88110352 C-114.1549858 163.94335433 -147.72723236 175.17141692 -174.28881836 184.86791992 C-176.42274494 185.65927721 -178.53690061 186.48709288 -180.64916992 187.33422852 C-187.49825336 189.99776096 -194.2108802 192.38789932 -201.61010742 190.72875977 C-203.86010742 188.60375977 -203.86010742 188.60375977 -204.61010742 185.72875977 C-204.12553915 181.39187375 -202.96251939 177.65035707 -201.36010742 173.60375977 C-200.6872168 171.89639648 -200.6872168 171.89639648 -200.00073242 170.15454102 C-198.72914762 167.02201328 -197.42723468 163.90484858 -196.11010742 160.79125977 C-193.85648709 155.44595403 -191.89883491 150.02733702 -190.01635742 144.54125977 C-188.92195113 141.47725877 -187.68794014 138.48549427 -186.42651367 135.48657227 C-182.82439259 126.91568617 -179.44974203 118.25540224 -176.04760742 109.60375977 C-175.05487716 107.08213295 -174.0618102 104.56063903 -173.06860352 102.03919983 C-172.43316871 100.42602034 -171.79791125 98.81277098 -171.1628418 97.19944763 C-169.55191277 93.10922527 -167.93202549 89.0229545 -166.29370117 84.94360352 C-164.89170446 81.45200901 -163.55167397 77.94110992 -162.23510742 74.41625977 C-160.52858189 69.94579104 -158.6610792 65.61407721 -156.61010742 61.29125977 C-154.54991595 56.91400817 -152.76494808 52.54695017 -151.17260742 47.97875977 C-140.65356256 17.93394792 -140.65356256 17.93394792 -127.85229492 11.57641602 C-121.24179326 9.07732392 -115.04476889 10.98394045 -108.62963867 13.27563477 C-103.39332516 15.79556831 -99.62973098 19.60318237 -95.61010742 23.72875977 C-94.83795898 24.5009082 -94.06581055 25.27305664 -93.27026367 26.06860352 C-91.75788253 27.58098466 -90.25126262 29.09915108 -88.75073242 30.62329102 C-86.81023563 32.53191833 -84.81861509 34.29229906 -82.73510742 36.04125977 C-78.87032926 39.3582741 -75.51153812 43.04214044 -72.10546875 46.82250977 C-64.32994127 55.40973164 -56.16221043 63.71766146 -47.33666992 71.22875977 C-42.98206857 75.01194284 -39.05389271 79.17062875 -35.29760742 83.54125977 C-32.43375882 86.84570046 -29.46981902 90.02968712 -26.42260742 93.16625977 C-25.60405273 94.0105957 -24.78549805 94.85493164 -23.94213867 95.72485352 C-21.04723168 98.21243691 -19.22482741 98.77625153 -15.48510742 98.66625977 C-13.31066984 97.84664823 -13.31066984 97.84664823 -12.63745117 95.08422852 C-12.12891602 93.42327148 -12.12891602 93.42327148 -11.61010742 91.72875977 C-9.3365641 85.13947281 -7.0230482 78.5839362 -4.29760742 72.16625977 C-1.89639014 66.46336872 0.4326852 60.7351049 2.70239258 54.97875977 C3.06437744 54.09115967 3.4263623 53.20355957 3.79931641 52.2890625 C5.92213706 46.84356603 7.10558921 42.57880181 6.38989258 36.72875977 C5.01199305 33.97461515 5.01199305 33.97461515 2.88989258 31.72875977 C2.16286133 30.88700195 1.43583008 30.04524414 0.68676758 29.17797852 C-1.44451842 26.90533171 -3.626033 24.71234337 -5.86010742 22.54125977 C-9.94483153 18.55302521 -12.85301373 14.8328439 -14.23510742 9.16625977 C-12.45217255 2.21281377 -6.68241403 -0.16461182 0 0 Z " fill="#010101" transform="translate(338.610107421875,86.271240234375)"/>
<path d="M0 0 C27 0 27 0 35 4 C37.97750181 7.40586881 38.90282569 11.19484142 39.4375 15.625 C38.7421223 20.98934225 36.35580662 24.84519181 33 29 C33.928125 29.680625 34.85625 30.36125 35.8125 31.0625 C39.24403965 33.96548497 40.75694631 36.61275167 42 41 C42.19378919 45.62671694 41.38152929 49.17589673 39.4375 53.375 C37 56 37 56 29 59 C19.43 59 9.86 59 0 59 C0 39.53 0 20.06 0 0 Z " fill="#030303" transform="translate(74,307)"/>
<path d="M0 0 C0.83660156 0.15984375 1.67320312 0.3196875 2.53515625 0.484375 C5.16174737 1.32146745 6.83942568 2.48626084 8.9375 4.25 C8.9375 2.93 8.9375 1.61 8.9375 0.25 C12.2375 0.25 15.5375 0.25 18.9375 0.25 C19.03664497 6.81530388 19.10910022 13.38016845 19.15722656 19.94604492 C19.17729685 22.17789302 19.20455933 24.40968882 19.23925781 26.64135742 C19.28797672 29.85608857 19.31051516 33.07012227 19.328125 36.28515625 C19.34877014 37.27709488 19.36941528 38.26903351 19.39068604 39.29103088 C19.39268364 45.50915272 18.62467564 49.1874427 14.9375 54.25 C9.50020431 58.62347696 4.11549701 60.70590509 -2.9140625 60.50390625 C-9.21254961 59.75953959 -14.40709532 57.60505599 -19.0625 53.25 C-17.85868552 50.75638429 -16.60821278 48.56856917 -15.0625 46.25 C-11.0625 48.25 -11.0625 48.25 -9.19921875 49.30078125 C-5.56649247 50.91458835 -1.96039048 50.70243372 1.9375 50.25 C4.90191013 48.98854888 6.37494933 48.02685568 8.25 45.4375 C9.12822993 42.64313203 9.06978191 40.16020204 8.9375 37.25 C8.1125 37.889375 7.2875 38.52875 6.4375 39.1875 C2.16930535 41.99288616 -2.11311109 42.73498556 -7.10546875 41.9140625 C-12.9866991 40.16220665 -17.0466178 36.55265002 -20.0625 31.25 C-22.60627758 23.33602531 -22.85571584 15.76618694 -19.0625 8.25 C-16.625 5.3125 -16.625 5.3125 -14.0625 3.25 C-13.0725 2.38375 -13.0725 2.38375 -12.0625 1.5 C-8.1186809 -0.96488694 -4.45071979 -0.90802939 0 0 Z " fill="#060606" transform="translate(240.0625,322.75)"/>
<path d="M0 0 C3.63 0 7.26 0 11 0 C13.8861138 2.93719546 15.50741748 5.03220378 17.5 8.5 C18.58768506 10.23881738 19.67624292 11.97708906 20.765625 13.71484375 C21.56709961 15.03718018 21.56709961 15.03718018 22.38476562 16.38623047 C24.85549138 20.38435471 27.55125543 24.21634218 30.25 28.0625 C34.83586015 34.6717203 34.83586015 34.6717203 36 37 C36.33 24.79 36.66 12.58 37 0 C40.63 0 44.26 0 48 0 C48 19.8 48 39.6 48 60 C38 60 38 60 35.51953125 57.7265625 C34.95621094 56.70304687 34.39289063 55.67953125 33.8125 54.625 C33.16667969 53.52027344 32.52085937 52.41554688 31.85546875 51.27734375 C31.24316406 50.19582031 30.63085938 49.11429687 30 48 C28.89741707 46.38034369 27.77343972 44.77497029 26.625 43.1875 C23.55658398 38.82337234 20.54490766 34.42318685 17.5625 30 C17.11277832 29.3402417 16.66305664 28.6804834 16.19970703 28.00073242 C13 23.23097124 13 23.23097124 13 21 C12.34 21 11.68 21 11 21 C11 33.87 11 46.74 11 60 C7.37 60 3.74 60 0 60 C0 40.2 0 20.4 0 0 Z " fill="#080808" transform="translate(269,306)"/>
<path d="M0 0 C4.49258429 3.36943822 8.09100788 7.36712172 9.5 12.875 C9.64737716 15.88352688 9.61800126 18.86596799 9.5 21.875 C3.49139451 22.93338127 -2.34627561 22.99162571 -8.4375 22.9375 C-9.40751953 22.93298828 -10.37753906 22.92847656 -11.37695312 22.92382812 C-13.7513676 22.9121315 -16.12565021 22.89574086 -18.5 22.875 C-17.24918303 28.02077549 -17.24918303 28.02077549 -14.3125 32.3125 C-10.7031604 34.31768867 -8.58273095 34.37638801 -4.5 33.875 C-1.28287055 32.51685993 -1.28287055 32.51685993 1.5 30.875 C2.49 30.545 3.48 30.215 4.5 29.875 C7.1875 31.3125 7.1875 31.3125 9.5 32.875 C7.62134112 37.65704079 4.34662242 40.03562617 -0.25 42.125 C-7.24253611 43.73866218 -14.20829891 43.65002066 -20.5 39.875 C-25.3990893 35.47559608 -28.23882073 30.965056 -28.80078125 24.31640625 C-28.80464844 23.03636719 -28.80851562 21.75632812 -28.8125 20.4375 C-28.82925781 19.16003906 -28.84601563 17.88257813 -28.86328125 16.56640625 C-28.27345909 10.573052 -25.52559495 6.25579451 -21.5 1.875 C-15.18896808 -2.71182705 -7.23364835 -2.32510125 0 0 Z " fill="#080808" transform="translate(354.5,324.125)"/>
<path d="M0 0 C3.3 0 6.6 0 10 0 C10.33 0.99 10.66 1.98 11 3 C11.598125 2.505 12.19625 2.01 12.8125 1.5 C17.52533296 -0.71780375 21.87710376 -0.66951214 27 0 C32.08403568 2.36044514 33.91508345 4.88842291 36 10 C36.24678591 12.68863958 36.35296343 15.12781248 36.29296875 17.8046875 C36.28872391 18.5286673 36.28447906 19.25264709 36.28010559 19.99856567 C36.26342972 22.29110287 36.22580081 24.58273246 36.1875 26.875 C36.17243871 28.43748722 36.15875284 29.99998835 36.14648438 31.5625 C36.11356293 35.37534505 36.06186002 39.18751911 36 43 C32.37 43 28.74 43 25 43 C24.97494385 42.1121582 24.9498877 41.22431641 24.92407227 40.30957031 C24.82878203 37.00703963 24.72955793 33.70467541 24.62768555 30.40234375 C24.58444682 28.97465612 24.54276415 27.54692046 24.50268555 26.11914062 C24.44471398 24.06365504 24.38109825 22.00840872 24.31640625 19.953125 C24.27974854 18.71723633 24.24309082 17.48134766 24.20532227 16.20800781 C24.04020181 13.62812342 23.7535613 11.45644894 23 9 C19.11314706 8.69514879 16.7150244 8.58038079 13.3059082 10.58105469 C10.25642667 13.78002377 10.34855033 15.58070754 10.29296875 19.953125 C10.27784744 20.61334656 10.26272614 21.27356812 10.24714661 21.95379639 C10.204318 24.0528796 10.19543798 26.1505237 10.1875 28.25 C10.16435136 29.67712146 10.13898523 31.10420879 10.11132812 32.53125 C10.04852854 36.02080563 10.01615209 39.50988132 10 43 C6.7 43 3.4 43 0 43 C0 28.81 0 14.62 0 0 Z " fill="#050505" transform="translate(175,323)"/>
<path d="M0 0 C3.80006935 -0.54769683 7.22308436 -0.78035447 11 0 C13.153413 2.08477832 14.3856359 4.0959753 15.78125 6.73828125 C16.96401331 8.93321701 18.15760453 10.34505756 20 12 C20.49371094 11.21753906 20.98742187 10.43507813 21.49609375 9.62890625 C22.45708984 8.11103516 22.45708984 8.11103516 23.4375 6.5625 C24.07558594 5.55316406 24.71367187 4.54382813 25.37109375 3.50390625 C27 1 27 1 28 0 C29.85287502 -0.07226502 31.70833878 -0.0838122 33.5625 -0.0625 C34.57441406 -0.05347656 35.58632813 -0.04445313 36.62890625 -0.03515625 C37.41136719 -0.02355469 38.19382812 -0.01195312 39 0 C37.95966892 1.64667789 36.91764553 3.29228661 35.875 4.9375 C35.24464844 5.93910156 34.61429687 6.94070313 33.96484375 7.97265625 C32.73514659 9.86731888 31.46222773 11.7353671 30.12890625 13.55859375 C29.57074219 14.32300781 29.01257813 15.08742188 28.4375 15.875 C27.92058594 16.55304688 27.40367187 17.23109375 26.87109375 17.9296875 C25.75024127 20.01374111 25.75024127 20.01374111 26.59765625 22.37890625 C28.22363524 25.41799233 30.04671946 28.22234392 32 31.0625 C34.22295411 34.30294598 36.35437297 37.42590379 38 41 C34.16774964 41.62369355 30.80677325 41.85728942 27 41 C23.89898982 38.07891192 21.83969545 34.83008267 20 31 C20 30.34 20 29.68 20 29 C19.34 29 18.68 29 18 29 C17.773125 29.680625 17.54625 30.36125 17.3125 31.0625 C13.87341772 38.75949367 13.87341772 38.75949367 11 41 C7.26445989 41.59979095 3.74961296 41.41370511 0 41 C0.44730469 40.29875 0.89460938 39.5975 1.35546875 38.875 C2.60929233 36.9073792 3.85910365 34.93719748 5.10546875 32.96484375 C6.25160344 31.17120205 7.41589386 29.38874679 8.61328125 27.62890625 C9.07089844 26.94699219 9.52851563 26.26507813 10 25.5625 C10.4125 24.96566406 10.825 24.36882812 11.25 23.75390625 C12.27333107 21.36080389 11.95116276 20.41139854 11 18 C9.94831405 16.19750413 8.83768903 14.4287926 7.6875 12.6875 C4.97555219 8.52471592 2.4122545 4.3420581 0 0 Z " fill="#050505" transform="translate(368,324)"/>
<path d="M0 0 C2.64 0 5.28 0 8 0 C8 3.63 8 7.26 8 11 C10.97 11 13.94 11 17 11 C17 13.64 17 16.28 17 19 C14.03 19 11.06 19 8 19 C8.0811599 22.56341281 8.19397861 26.12514956 8.3125 29.6875 C8.33505859 30.69490234 8.35761719 31.70230469 8.38085938 32.74023438 C8.524164 39.90903258 8.524164 39.90903258 12 46 C14.59122743 46.88658466 14.59122743 46.88658466 17 47 C17 49.64 17 52.28 17 55 C6.98773006 55.39263804 6.98773006 55.39263804 3 53 C-1.72640551 48.14230545 -2.13275077 43.82439445 -2.09765625 37.26171875 C-2.09443359 36.19501953 -2.09121094 35.12832031 -2.08789062 34.02929688 C-2.07951172 32.92650391 -2.07113281 31.82371094 -2.0625 30.6875 C-2.05798828 29.56537109 -2.05347656 28.44324219 -2.04882812 27.28710938 C-2.03707313 24.5246849 -2.02064077 21.76237002 -2 19 C-3.98 19 -5.96 19 -8 19 C-8.04241723 16.66705225 -8.04092937 14.33297433 -8 12 C-7.67 11.67 -7.34 11.34 -7 11 C-5.35 11 -3.7 11 -2 11 C-1.34 7.37 -0.68 3.74 0 0 Z " fill="#060606" transform="translate(420,312)"/>
<path d="M0 0 C2.97 0 5.94 0 9 0 C9.66 2.31 10.32 4.62 11 7 C11.86625 5.824375 11.86625 5.824375 12.75 4.625 C14.89739923 2.1197009 15.92379218 0.99524371 19 0 C22.25 -0.125 22.25 -0.125 25 0 C24.67 3.3 24.34 6.6 24 10 C22.6696875 10.3403125 22.6696875 10.3403125 21.3125 10.6875 C17.51769499 12.19110199 15.63349146 13.91505286 13 17 C12.00544091 19.98367726 11.80440368 22.2004192 11.68359375 25.32421875 C11.64169922 26.35224609 11.59980469 27.38027344 11.55664062 28.43945312 C11.51732422 29.51130859 11.47800781 30.58316406 11.4375 31.6875 C11.39431641 32.77095703 11.35113281 33.85441406 11.30664062 34.97070312 C11.20053258 37.64698385 11.09975945 40.32347511 11 43 C7.37 43 3.74 43 0 43 C0 28.81 0 14.62 0 0 Z " fill="#050505" transform="translate(123,323)"/>
<path d="M0 0 C3.96 0.33 7.92 0.66 12 1 C12 14.86 12 28.72 12 43 C8.04 43 4.08 43 0 43 C0 28.81 0 14.62 0 0 Z " fill="#0B0B0B" transform="translate(154,323)"/>
<path d="M0 0 C2.71771752 2.19019987 4.4399493 4.8798986 6 8 C6.54802111 13.69941954 5.60961802 16.56532643 2 21 C-1.75047482 23.50031654 -3.55856266 23.53603554 -8 23 C-11.59024207 20.2075895 -14.07986465 17.49843949 -15 13 C-14.67014203 8.40672783 -13.83891116 5.01162816 -10.875 1.4375 C-7.13545959 -0.4322702 -4.09079903 -1.1239367 0 0 Z " fill="#F6F6F6" transform="translate(244,332)"/>
<path d="M0 0 C14.18907035 0.57914573 14.18907035 0.57914573 19 5 C21 8 21 8 20.8125 11.5625 C20 15 20 15 17 17 C14.765625 17.66796875 14.765625 17.66796875 12.25 18.1875 C11.02023438 18.45626953 11.02023438 18.45626953 9.765625 18.73046875 C7 19 7 19 0 18 C0 12.06 0 6.12 0 0 Z " fill="#EFEFEF" transform="translate(84,339)"/>
<path d="M0 0 C0.495 0.474375 0.99 0.94875 1.5 1.4375 C1.17 3.0875 0.84 4.7375 0.5 6.4375 C-0.49 6.4375 -1.48 6.4375 -2.5 6.4375 C-2.5 5.7775 -2.5 5.1175 -2.5 4.4375 C-5.14 4.1075 -7.78 3.7775 -10.5 3.4375 C-12.69242277 6.41919496 -13.53350875 7.86785128 -13.3125 11.625 C-12.71417687 14.54537469 -12.71417687 14.54537469 -10.5 16.4375 C-6.23527274 16.93079585 -6.23527274 16.93079585 -2.625 14.9375 C-2.25375 14.4425 -1.8825 13.9475 -1.5 13.4375 C-0.18 14.0975 1.14 14.7575 2.5 15.4375 C1.48929671 18.1020814 0.5600516 19.38945872 -1.6875 21.1875 C-5.28422101 22.78604267 -7.59371011 22.91721981 -11.5 22.4375 C-14.85734344 20.72715523 -16.90289105 19.41458737 -18.875 16.1875 C-20.1144937 10.73372774 -20.29623519 7.02997039 -17.8125 2.0625 C-12.90663983 -3.50631425 -6.22004846 -3.88753029 0 0 Z " fill="#0D0D0D" transform="translate(289.5,397.5625)"/>
<path d="M0 0 C11.37998229 -0.4676705 11.37998229 -0.4676705 17 3 C18.125 5.375 18.125 5.375 18 8 C16.7782381 10.7650401 15.80044465 12.48122629 13.24609375 14.13671875 C8.9967817 15.7699326 4.49308213 15.10697815 0 15 C0 10.05 0 5.1 0 0 Z " fill="#F0F0F0" transform="translate(84,316)"/>
<path d="M0 0 C1.65 0 3.3 0 5 0 C5 6.6 5 13.2 5 20 C8.3 20 11.6 20 15 20 C15 21.65 15 23.3 15 25 C10.05 25 5.1 25 0 25 C0 16.75 0 8.5 0 0 Z " fill="#0D0D0D" transform="translate(246,395)"/>
<path d="M0 0 C1.65 0 3.3 0 5 0 C5 6.27 5 12.54 5 19 C8.3 19 11.6 19 15 19 C15 20.65 15 22.3 15 24 C10.05 24 5.1 24 0 24 C0 16.08 0 8.16 0 0 Z " fill="#070707" transform="translate(220,396)"/>
<path d="M0 0 C3.41846034 0.79199972 4.96879031 2.70171559 6.97265625 5.45703125 C6.97265625 6.77703125 6.97265625 8.09703125 6.97265625 9.45703125 C1.03265625 9.78703125 -4.90734375 10.11703125 -11.02734375 10.45703125 C-10.02734375 4.45703125 -10.02734375 4.45703125 -8.46484375 2.08203125 C-5.62615713 0.1895735 -3.40309177 -0.17174482 0 0 Z " fill="#F3F3F3" transform="translate(347.02734375,330.54296875)"/>
<path d="M0 0 C0.94552734 0.16242188 0.94552734 0.16242188 1.91015625 0.328125 C3.91015625 3.328125 3.91015625 3.328125 3.66015625 5.890625 C2.91015625 8.328125 2.91015625 8.328125 0.91015625 10.328125 C-2.22026105 10.66114812 -4.26882673 10.80484456 -7.02734375 9.203125 C-8.62927863 6.37618109 -7.88568694 4.37885723 -7.08984375 1.328125 C-5.19856033 -0.56315842 -2.51916649 0.0914398 0 0 Z " fill="#101010" transform="translate(162.08984375,306.671875)"/>
</svg>
